<svg xmlns="http://www.w3.org/2000/svg" xmlns:xlink="http://www.w3.org/1999/xlink" width="432" height="424.646" viewBox="0 0 432 424.646"><defs><style>.a,.n{fill:none;}.b{fill:#ffefd8;}.c{clip-path:url(#a);}.d{fill:#f2b69c;}.e{fill:#bcc9d0;}.f{fill:#fc9f25;}.g{fill:#233447;}.h{fill:#dc176b;}.i{fill:#86ccf4;}.j{fill:#edb89c;}.k{fill:#563483;}.l{fill:#213547;}.m{fill:#161615;}.n{stroke:#fff;stroke-linecap:round;stroke-miterlimit:10;stroke-width:0.25px;}.o{fill:#fe2c25;}.p{fill:#2785fc;}.q{fill:#ffba00;}.r{fill:#00a050;}</style><clipPath id="a"><rect class="a" width="409.275" height="265.069"/></clipPath></defs><g transform="translate(-1241 -1479.662)"><g transform="translate(1241 1623.209)"><ellipse class="b" cx="216" cy="19.5" rx="216" ry="19.5" transform="translate(0 242.1)"/><g transform="translate(5.284 0)"><g class="c"><path class="d" d="M34.8,40.992V37.276H30.821L23.654,20.554,49.93,16.042l-1.566,7.032s1.3,13.937-4.539,13.937v2.919S41.7,51.521,34.8,40.992" transform="translate(25.526 17.312)"/><path class="e" d="M18.8,177.613l6.635-53.881L20.4,79.672s15.394-14.334,58.925-7.7l-1.062,37.691-9.822,69.541H59.679l-3.718-57.066-3.979-27.6L49.061,123.2,27.827,179.205,26.5,180.532Z" transform="translate(20.291 75.778)"/><path class="f" d="M1.314,17.635C5.643,36.719,10.369,54.5,16.708,67c7.693,3.223,15.221,3.969,22.561,1.857,0,0-10.146,58.015-4.248,70.868.84,1.607,15.6-12.9,63.173-9.29,0,0,22.561-5.838,10.35-19.906s-13.8-37.425-13.8-37.425c2.139,3.412,5.427,5.364,10.086,5.574l16.989-33.975-7.169-1.06L104.563,59.571,88.9,43.911,67.934,39.929s-1.593,7.963-9.024,1.062L32.368,49.485l-22.3-33.443Z" transform="translate(1.418 17.312)"/><path class="g" d="M35.809,46.947S26.253,35,37.4,34.472a161.03,161.03,0,0,1,18.049,0s9.024-4.512,8.227-16.456.05-1.326.05-1.326,8.443-7.963-.846-10.618-15.66,6.9-15.66,6.9H38.462c-7.5.873-12.912,4.052-16.454,9.29,0,0-11.148,23.357,13.8,24.684" transform="translate(21.07 6.049)"/><path class="h" d="M75.1,34.8,82,31.611c1.229,7.319,9.891,16.278,13.8,21.149,6.059,7.543,31.848,3.707,31.848,3.707s10.34-3.959,10.618-6.277c0,0-.532,8.855,6.9,2.57,2.917,2.008,6.541,2.568,11.679,0l12.741-6.019L187.109,5.8h6.9a270.291,270.291,0,0,1-7.961,46.964s-16.989,18.132-24.42,16.012c0,0,21.765,82.811,6.9,82.014l-2.653-2.919s-39.814,11.679-50.962,7.431-7.433-24.95-7.433-24.95,3.185-53.083,7.963-56.268c-17.124,2.589-23.8-3-26.01-5.308S86.343,64.129,83.2,55.91c-3.93-10.286-6.832-17.82-8.1-21.114" transform="translate(81.045 6.255)"/><path class="i" d="M97.328,179.236h7.431s18.049-79.1,14.864-81.75c0,0,13.8,40.874,14.864,81.75l7.433-2.919s7.961-92.635,4.246-102.19c0,0-42.469,11.679-50.96,7.433,0,0-5.31,9.024,2.123,97.677" transform="translate(100.757 79.994)"/><path class="j" d="M101.144,18.893s.707,16.633,9.024,14.51v2.653s-.353,9.209,6.9,2.57V33.757s7.077-3.892,5.485-6.194c0,0-13.625,10.795-21.411-8.67" transform="translate(109.15 20.388)"/><path class="g" d="M98.466,12.9s-1.239,15.571,5.662,18.4c0,0,5.485,19.818,21.411,8.67,0,0,13.448-5.308,9.2-19.64-3.445-7-9.057-11.491-17.766-12.388-11.346-1.632-16.77.493-18.509,4.955" transform="translate(106.166 7.981)"/><path class="k" d="M170.276,26.65s-20.172,36.3-23,35.913c0,0,8.14,12.352,11.5,12,0,0-1.948,44.947-4.069,44.238l-7.433,31.5s6.878,1.341,16.7,2.641c21.3,2.817,56.439,5.445,65.4-6.179l-17.7-84.2c-.141,1.01,2.171,1.832,7.077,2.445C227.3,59.164,235.2,48.9,242.826,36.715L235.391,32.8,223.714,43.774,220.175,46.3l-7.433-6.061-9.2-1.416-8.5-7.433V22.893s-5.308,8.493-16.633,0Z" transform="translate(158.929 24.705)"/><path class="l" d="M160.41,161.189l-5.1-75.75L179.921,87l-12.309,74.186Z" transform="translate(167.598 92.202)"/><path class="l" d="M168.8,86.63s3.982,50.96,16.854,71.93H190.7s-3.075-69.379,1.846-72.777Z" transform="translate(182.164 92.574)"/><path class="g" d="M156.165,39.93s5.115,4.688,10.521,0H185.45s-1.316,20.012,16.02,17.082c0,0,12.028-48.049-19.026-49.906,0,0-4.882.264-6.025,3.715,0,0-11.76-2.212-14.677,20.792,0,0-1.329,10.882-5.576,8.317" transform="translate(168.526 7.668)"/><path class="j" d="M168.631,11.924s-9.219,6.371-7.265,22.031c0,0,8.238,12.828,18.764,3.626l.975-13.959s-3.982-9.308-11.148-11.7" transform="translate(173.845 12.868)"/><path class="m" d="M19.52,122.144v5.8l6.383,3.892c3.657.825,5.5-.1,5.84-2.476L26.612,124.5Z" transform="translate(21.065 131.812)"/><path class="m" d="M38.463,123.171v3.821l3.273,1.489,5.308,3.36c3.686-.383,5.632-1.578,4.248-4.335L47.753,124.5l-.387-2.356Z" transform="translate(41.507 131.812)"/><path class="m" d="M97.68,124.681s-7.786,2.3-3.185,5.84h10.972l-.356-5.84Z" transform="translate(100.405 134.55)"/><path class="m" d="M113.144,126.2l7.433-2.919,5.233,4.158c2.329,1.626,1.647,2.522,0,3.183l-11.6,1.418-1.062-4.381Z" transform="translate(122.1 133.035)"/><path class="m" d="M162.471,120.705l7.6,2.476v4.512s-11.317,5.751-14.853,2.921,7.254-9.909,7.254-9.909" transform="translate(166.734 130.259)"/><path class="m" d="M180.513,120.246h8l1.206,5.84s-9.733,9.732-16.456,5.838,7.254-11.679,7.254-11.679" transform="translate(184.998 129.764)"/><path class="d" d="M3.714,24.157S-.63,16.992.077,12.391,6.448,10.8,6.448,10.8l3.474,12.23Z" transform="translate(0 10.611)"/><path class="d" d="M56.45,36.3l1.62-7.379H59.66l2.655-5.732c1.688-.412,2.973-.081,3.715,1.241l-4.79,12.14Z" transform="translate(60.918 24.848)"/><path class="d" d="M79.706,28.155l-7.431-7.549c-.682-1.146.364-1.541,2.123-1.626l1.593,1.626L73.6,13.073c2.027-2.474,4.063-2.844,6.1-1.258l4.26,14.939Z" transform="translate(77.769 11.719)"/><path class="d" d="M129.612,12.053V2.3q3.979-4.6,7.963,0l-3.982,9.751Z" transform="translate(139.871)"/><path class="d" d="M190.221,33.906l3.31-6.815q1.949-1.962,2.171,0l2.48-3.963c3.832-1.264,5.287.715,5.813,3.963l-9.441,9.1-2.855-1.5Z" transform="translate(205.277 24.543)"/><path class="d" d="M156.932,43.038V38.793c1.258-1.393,2.029-.969,2.651,0l2.389-5.84c1.364-2.121,2.564-1.7,3.612,1.062L162.77,45.693h-1.514Z" transform="translate(169.354 34.111)"/><path class="n" d="M164.463,39.36s-3.16,16.556-10.254,16.411" transform="translate(166.415 42.475)"/></g></g></g><g transform="matrix(0.966, 0.259, -0.259, 0.966, 1428.819, 1479.662)"><path class="o" d="M52.6,19.2,15.9,39.721A10.785,10.785,0,0,1,1.427,35.969,10.087,10.087,0,0,1,4.961,22.109l.338-.2L42,1.389A10.774,10.774,0,0,1,56.466,5.14a10.077,10.077,0,0,1-3.533,13.817A2.7,2.7,0,0,1,52.6,19.2Z" transform="translate(0 0)"/><path class="p" d="M41.976,39.71,5.291,19.153A10.087,10.087,0,0,1,1.212,5.489l.2-.349a10.785,10.785,0,0,1,14.46-3.762L52.576,21.9a10.1,10.1,0,0,1,4.068,13.675l-.2.349A10.785,10.785,0,0,1,41.976,39.71Z" transform="translate(0.019 20.568)"/><path class="q" d="M15.864,39.677,52.571,19.153A10.076,10.076,0,0,0,56.639,5.489l-.2-.349A10.774,10.774,0,0,0,41.971,1.389l-36.7,20.48A10.1,10.1,0,0,0,1.218,35.544l.2.349A10.785,10.785,0,0,0,15.864,39.677Z" transform="translate(68.433 20.6)"/><path class="r" d="M5.292,19.2l36.7,20.524A10.785,10.785,0,0,0,56.46,35.969a10.087,10.087,0,0,0-3.533-13.861l-.338-.2L15.881,1.389A10.774,10.774,0,0,0,1.41,5.14,10.087,10.087,0,0,0,4.943,18.957a2.813,2.813,0,0,0,.349.24Z" transform="translate(68.416 0)"/></g></g></svg>