<svg xmlns="http://www.w3.org/2000/svg" xmlns:xlink="http://www.w3.org/1999/xlink" width="635.833" height="498.172" viewBox="0 0 635.833 498.172"><defs><style>.a,.v,.w{fill:none;}.b{clip-path:url(#a);}.c{fill:#161615;}.d{fill:#292929;}.e{fill:#dc002f;}.f{fill:#92bc5a;}.g{fill:#89cfe7;}.h{fill:#fff;}.i{fill:#dc176b;}.j{fill:#563483;}.k{fill:#f89106;}.l{fill:#d5d5d5;}.m{fill:#2d2d2d;}.n{fill:#a48ce8;}.o{fill:#ffd9b8;}.p{fill:#fbc59c;}.q{fill:#424242;}.r{fill:#cfcfcf;}.s{fill:#6d6d6d;}.t{fill:#77b7e6;}.u{fill:#93d5f8;}.v{stroke:#090a0a;stroke-miterlimit:10;stroke-width:0.1px;}.w{stroke:#000;stroke-width:2px;}</style><clipPath id="a"><rect class="a" width="534.301" height="337.532"/></clipPath></defs><g transform="translate(-74 -2337.942)"><g transform="translate(74 2498.581)"><g class="b"><path class="c" d="M515.6,336.3H17.974A17.475,17.475,0,0,1,.5,318.826V17.974A17.474,17.474,0,0,1,17.974.5H515.6a17.474,17.474,0,0,1,17.474,17.474V318.826A17.475,17.475,0,0,1,515.6,336.3" transform="translate(0.366 0.366)"/><rect class="a" width="532.571" height="335.8" rx="10.088" transform="translate(0.866 0.867)"/><path class="d" d="M498.433,314.8H21.413A12.578,12.578,0,0,1,8.834,302.22V22.728A12.58,12.58,0,0,1,21.413,10.149h477.02a12.58,12.58,0,0,1,12.581,12.579V302.22A12.579,12.579,0,0,1,498.433,314.8" transform="translate(6.468 7.431)"/><rect class="a" width="502.18" height="304.65" rx="7.262" transform="translate(15.302 17.581)"/><path class="e" d="M297,18.164a4.822,4.822,0,1,1-4.822-4.822A4.823,4.823,0,0,1,297,18.164" transform="translate(210.398 9.769)"/><path class="f" d="M282.124,18.087a4.641,4.641,0,1,1-4.642-4.639,4.64,4.64,0,0,1,4.642,4.639" transform="translate(199.77 9.846)"/><path class="g" d="M289.38,18.088a4.641,4.641,0,1,1-4.642-4.642,4.641,4.641,0,0,1,4.642,4.642" transform="translate(205.083 9.845)"/><rect class="h" width="26.535" height="4.422" transform="translate(33.247 46.613)"/><rect class="i" width="47.763" height="6.634" transform="translate(33.249 57.669)"/><rect class="j" width="27.862" height="6.634" transform="translate(87.203 57.669)"/><rect class="k" width="34.938" height="6.634" transform="translate(121.479 57.669)"/><rect class="i" width="67.886" height="6.634" transform="translate(39.551 69.168)"/><rect class="j" width="42.568" height="6.634" transform="translate(113.849 69.168)"/><rect class="k" width="50.086" height="6.634" transform="translate(162.719 69.168)"/><rect class="i" width="15.81" height="6.634" transform="translate(218.665 69.168)"/><rect class="i" width="47.763" height="6.634" transform="translate(33.249 82.878)"/><rect class="j" width="27.862" height="6.634" transform="translate(87.203 82.878)"/><rect class="k" width="34.938" height="6.634" transform="translate(121.479 82.878)"/><rect class="i" width="67.886" height="6.634" transform="translate(39.551 94.376)"/><rect class="j" width="42.568" height="6.634" transform="translate(113.849 94.376)"/><rect class="k" width="50.086" height="6.634" transform="translate(162.719 94.376)"/><rect class="i" width="15.81" height="6.634" transform="translate(218.665 94.376)"/><rect class="i" width="82.426" height="6.634" transform="translate(32.639 134.4)"/><rect class="j" width="42.567" height="6.634" transform="translate(33.249 147.668)"/><rect class="k" width="50.086" height="6.634" transform="translate(83.003 147.668)"/><rect class="i" width="25.706" height="6.634" transform="translate(137.622 147.668)"/><rect class="h" width="28.359" height="6.634" transform="translate(121.507 134.4)"/><rect class="i" width="47.763" height="6.634" transform="translate(33.857 161.82)"/><rect class="j" width="27.862" height="6.634" transform="translate(87.811 161.82)"/><rect class="k" width="34.938" height="6.634" transform="translate(122.087 161.82)"/><rect class="i" width="67.886" height="6.634" transform="translate(40.159 173.32)"/><rect class="j" width="42.568" height="6.634" transform="translate(114.457 173.32)"/><rect class="k" width="50.086" height="6.634" transform="translate(163.327 173.32)"/><rect class="i" width="47.763" height="6.634" transform="translate(33.857 187.03)"/><rect class="j" width="27.862" height="6.634" transform="translate(87.811 187.03)"/><rect class="k" width="34.938" height="6.634" transform="translate(122.087 187.03)"/><rect class="i" width="67.886" height="6.633" transform="translate(40.159 198.528)"/><rect class="j" width="42.568" height="6.633" transform="translate(114.457 198.528)"/><rect class="k" width="50.086" height="6.633" transform="translate(163.327 198.528)"/><rect class="i" width="82.426" height="6.633" transform="translate(77.032 210.47)"/><rect class="j" width="42.568" height="6.634" transform="translate(77.64 223.737)"/><rect class="k" width="50.086" height="6.634" transform="translate(127.393 223.737)"/><rect class="i" width="25.706" height="6.634" transform="translate(182.014 223.737)"/><rect class="h" width="28.361" height="6.633" transform="translate(165.898 210.47)"/><rect class="i" width="67.886" height="6.633" transform="translate(77.032 238.554)"/><rect class="j" width="42.568" height="6.633" transform="translate(151.275 238.554)"/><rect class="k" width="50.086" height="6.633" transform="translate(200.2 238.554)"/><rect class="i" width="15.81" height="6.633" transform="translate(256.146 238.554)"/><rect class="l" width="7.739" height="7.741" transform="translate(33.138 262.655)"/><rect class="l" width="7.739" height="7.741" transform="translate(33.138 275.48)"/><rect class="l" width="12.825" height="8.405" transform="translate(33.138 289.191)"/><rect class="l" width="12.825" height="7.961" transform="translate(33.138 302.016)"/><rect class="j" width="31.401" height="7.741" transform="translate(73.493 262.655)"/><rect class="h" width="78.17" height="7.741" transform="translate(115.673 262.655)"/><rect class="k" width="79.607" height="7.961" transform="translate(92.952 283.222)"/><rect class="i" width="72.227" height="7.961" transform="translate(149.865 302.016)"/><rect class="j" width="43.232" height="7.961" transform="translate(64.205 302.016)"/><rect class="i" width="52.076" height="7.741" transform="translate(198.21 275.48)"/><rect class="l" width="12.825" height="7.961" transform="translate(33.138 31.459)"/></g></g><g transform="matrix(1, 0.017, -0.017, 1, 507.763, 2338)"><path class="m" d="M63.241,61.557c-2.8-6.713-13.146-8.391-13.146-8.391l1.119-12.027C62.9,39.3,62.682,24.916,62.682,24.916,65.2,8.693,51.214,9.253,51.214,9.253c-1.119,4.475-9.79,12.307-9.79,12.307l-2.68-.28c-6.315,4.755,1.28,8.95,1.28,8.95a5.018,5.018,0,0,1,1.4,3.916c0,2.8-3.916,16.057-3.916,16.057H31.075c-13.426,3.472-9.79,16.666-8.391,17.785S24.642,92.6,24.642,92.6C-20.67,73.023,10.377,48.129,10.377,48.129c-3.077-20.7,15.1-24.893,15.1-24.893,12.866-40,37.76-16.223,37.76-16.223C78.9,10.649,75.267,33.585,75.267,33.585c8.95,19.02-12.027,27.97-12.027,27.97" transform="translate(0 0)"/><path class="j" d="M44.2,33.5l-.28,19.579L44.2,76.3,0,80.5C6.981,63.438,3.089,42.461,3.089,42.461L1.131,17.847C-5.023-2.01,15.955.062,15.955.062c16.223,22.21,12.587,2.962,12.587,2.962l8.95,3.536L53.155,25.678,50.079,28.2Z" transform="translate(21.553 50.141)"/><path class="d" d="M144.962,103.489c.839,9.23,8.671,15.384,8.671,15.384l16.5,8.391v2.517l-31.047-1.4s-4.475-5.034-1.4-8.111-2.517-9.79-2.517-9.79l-34.4-42.515L95.735,57.059,65.248,97.9c-10.629,7.273-10.908,20.7-10.908,20.7l2.78,10.069L44.83,129.781c2.517-5.874-5.035-23.495-5.035-23.495s0-2.8,5.594-4.755,6.993-9.23,6.993-9.23L80.034,35.243c-5.874,2.8-14.227-1.679-14.227-1.679l-53.982.56C-5.236,34.963,1.184,4.2,1.184,4.2L45.386,0c64.331,10.629,63.772,16.223,63.772,16.223,9.79,4.2,0,19.021,0,19.021l35.8,68.246" transform="translate(20.364 126.434)"/><path class="n" d="M15.663,19.113l-8.95,7.832L0,0Z" transform="translate(59.045 56.7)"/><path class="n" d="M9.756,0C-5,4.87,1.365,17.783,1.365,17.783L18.844,37.711,29.977,26l1.663-1.748Z" transform="translate(21.321 50.203)"/><path class="o" d="M59.088,26.459,25.175,25.77c-8.111,2.306-11.6-1.89-11.6-1.89L0,10.1,9.6,0S21.117,12.757,21.957,14.186s40.277,4.662,40.277,4.662Z" transform="translate(41.7 76.199)"/><path class="p" d="M.1,6.176,0,13.527l38.282,4.045,1.5-.839L11.833,7.925C10.769,8.556,7.162,0,7.162,0Z" transform="translate(65.655 77.474)"/><path class="q" d="M145.072,102.968l-9.79,6.993-34.4-42.515L95.845,56.538l-6.5-14.062-7.8-3.089c-3.5-1.4-4.767-1.656-6.993-2.8a52.456,52.456,0,0,0-8.633-3.543s-36.572,1.537-53.982.558S1.3,3.679,1.3,3.679L40.066,0,99.407,21.79c6.082.627,9.858,12.934,9.858,12.934Z" transform="translate(20.26 126.956)"/><path class="o" d="M9.79,0c-1.119,4.2,5.725,12.468,5.725,12.468,3.348,8.9-13,4.313-13,4.313C6.084,13.634,0,6.993,0,6.993L9.79,0" transform="translate(155.534 229.923)"/><path class="o" d="M19.859,5.594A26.081,26.081,0,0,0,8.95,26.292C5.105,25.662,0,9.23,0,9.23,6.083,7.273,6.993,0,6.993,0Z" transform="translate(65.758 218.735)"/><path class="r" d="M0,45.94H60.463S74.474,17.055,78.018,8.134,73.489.063,73.489.063,31.575-.079,24.5.063s-7.5,5.664-7.5,5.664L1.733,42.535.849,44.666Z" transform="translate(98.76 60.788)"/><path class="s" d="M31.733,0,30.021,3.364l-28.53.558C-1.865,2.384,1.492,0,1.492,0Z" transform="translate(69.161 103.081)"/><path class="t" d="M.037,3.322v0A2.87,2.87,0,0,1,2.423.036h0A2.872,2.872,0,1,1,.037,3.319" transform="translate(137 82.177)"/><path class="o" d="M13.863,43.913l1.119-12.027c11.188-.839,11.468-16.223,11.468-16.223C29.1-.279,14.982,0,14.982,0,14,4.057,5.192,12.307,5.192,12.307l-2.68-.28c-5.475,5.035-.569,7.573,1.28,8.95a4.27,4.27,0,0,1,1.4,3.916L1.275,40.952C16.8,61.9,14.06,45.29,14.06,45.29Z" transform="translate(36.234 9.249)"/><path class="u" d="M14.016,0c-.951,8.484-13,4.313-13,4.313-2.937,3.146,1.4,8.111,1.4,8.111s28.706,1.959,31.046,1.4,0-2.517,0-2.517l-16.5-8.391L14.018,0" transform="translate(157.031 242.391)"/><path class="u" d="M5.588,0c.42,7.348,8.95,18.871,8.95,18.871l3.8,14.692L14.138,38.4l-3.206,1.082L8.863,38.5l-1.2-1.445-.753-1.159L4.184,30.213C7.086,25.651,0,5.26,0,5.26.072,2.088,5.594,0,5.594,0" transform="translate(60.163 227.965)"/><path class="v" d="M50.1,53.166l1.119-12.027C62.9,39.3,62.682,24.916,62.682,24.916,65.2,8.693,51.214,9.253,51.214,9.253c-1.119,4.475-9.79,12.307-9.79,12.307l-2.68-.28c-6.315,4.755,1.28,8.95,1.28,8.95a5.018,5.018,0,0,1,1.4,3.916c0,2.8-3.916,16.057-3.916,16.057H31.075c-13.426,3.472-9.79,16.666-8.391,17.785S24.642,92.6,24.642,92.6C-20.67,73.023,10.377,48.129,10.377,48.129c-3.077-20.7,15.1-24.893,15.1-24.893,12.866-40,37.76-16.223,37.76-16.223C78.9,10.649,75.267,33.585,75.267,33.585c8.95,19.02-12.027,27.97-12.027,27.97C60.444,54.843,50.1,53.166,50.1,53.166Z" transform="translate(0 0)"/></g><path class="w" d="M0,0H217.4" transform="translate(492.431 2445.694)"/></g></svg>