<svg xmlns="http://www.w3.org/2000/svg" xmlns:xlink="http://www.w3.org/1999/xlink" width="499" height="525.542" viewBox="0 0 499 525.542"><defs><style>.a{fill:#ff970e;stroke:#707070;stroke-width:3px;}.b{clip-path:url(#a);}.c{fill:#313131;}.d{fill:#040404;}.e{fill:#fc9f25;}.f{fill:#ffc77e;}.g{fill:#ffbd67;}.h{fill:#8f8f8f;}.i{fill:#171717;}.j,.p,.q,.s{fill:none;stroke:#161615;}.j,.p,.q{stroke-miterlimit:10;}.j,.q{stroke-width:0.25px;}.k{fill:#c1c1c1;}.l{fill:#a9daf7;}.m{fill:#ffd9b8;}.n{fill:#474747;}.o{fill:#797979;}.q{stroke-linecap:round;}.r{fill:#0f3b8a;}.s{stroke-width:4px;}</style><clipPath id="a"><path class="a" d="M0,0H499V525.542H0Z"/></clipPath></defs><g class="b"><path class="c" d="M138.415,81.618s27.272,41.414,17.171,77.777c0,0,13.637,77.78,50,170.711h-37.88s-37.88-64.143-33.838-71.214c0,0-1.154-2.288-3.119-6.273C119.169,229.1,79.476,146.583,83.364,127.578c-1.849-16.584-2.688-32.082-2.021-45.96Z" transform="translate(159.573 160.562)"/><path class="d" d="M133.2,295.648H102.391S70.374,182.935,84.11,99.134l50.606,125.3-3.537,4.041Z" transform="translate(158.726 195.02)"/><path class="e" d="M150.569,40.56S175.823,112.3,141.982,176.4H84.913s-12.629-26.456,0-97.177c0,0,51.514,8.139,48.989-13.228s-30.809-21.877-30.809-21.877l-.5-10.685s46.511,2.383,47.98,7.124" transform="translate(156.003 65.776)"/><path class="f" d="M160.986,62.141H112.5S71.592,36.383,71.085,24.766L49.872,33.858S66.539,92.95,142.806,96.991c0,0,40.15,7.053,47.847-6.647,1.463-2.608,1.751-5.967.365-10.276,0,0-2.252-17.928-30.031-17.928" transform="translate(98.11 48.721)"/><path class="g" d="M131.014,58.233s-16.667,9.6-45.455-36.871H64.851S76.085,58.533,91.429,68.485l40.09.353Z" transform="translate(127.577 42.024)"/><path class="f" d="M135.129,46.93h4.546L131.6,31.275S88.158,28.75,87.653,34.3l-.5,5.555s46.12.964,47.98,7.071" transform="translate(171.443 60.398)"/><path class="h" d="M171.048,165.362s14.649,19.578,3.534,26.865-76.768,0-76.768,0-6.062-9.512,12.626-11.813S136.7,165.362,136.7,165.362Z" transform="translate(190.575 325.306)"/><path class="h" d="M147.931,165.362s10.51,11.563,5.991,16.7-2.433,13.409-2.433,13.409H77.655s-15.151-2.326,0-8.388,45.707-15.1,43.942-21.717Z" transform="translate(139.52 325.306)"/><path class="i" d="M156.718,53.974S177,24.177,120,16.095c0,0-14.326-23.233-27.405-13.13,0,0-3.433,3.03,0,12.121,0,0-8.819-4.041-10.949-.5S79.511,39.833,97.092,40.844c0,0-4.8,9.089,21.308,5.05L121.064,61.8h8.652s8.928,31.061,16.385,24.5,10.617-32.325,10.617-32.325" transform="translate(158.725 2.139)"/><path class="j" d="M156.718,53.974S177,24.177,120,16.095c0,0-14.326-23.233-27.405-13.13,0,0-3.433,3.03,0,12.121,0,0-8.819-4.041-10.949-.5S79.511,39.833,97.092,40.844c0,0-4.8,9.089,21.308,5.05L121.064,61.8h8.652s8.928,31.061,16.385,24.5S156.718,53.974,156.718,53.974Z" transform="translate(158.725 0.824)"/><path class="k" d="M230.035,38.779,4.766,2.98v70.2l225.27-15.658Z" transform="translate(9.376 5.861)"/><path class="l" d="M74.433,29.476l-3.03-7.1L48.17,25.924V39.576l5.05-1.009Z" transform="translate(94.762 44.011)"/><path class="m" d="M80.563,24.376S78.922,6.7,69.893,20.842L67.43,33.465V17.81S54.8-.733,47.229,15.356,54.3,52.642,54.3,52.642L77.533,49.09l-3.537-3S76.521,26.9,80.563,24.376" transform="translate(88.632 17.293)"/><path class="m" d="M91.2,20.561s6.931-8.955,0-9.964-26.631,0-26.631,0-5.391,2.923,0,4.756S91.2,20.561,91.2,20.561" transform="translate(122.304 19.962)"/><path class="m" d="M123.762,45.861s17.536-19.192,1.546-21.717c0,0-5.421,0-3.484,10.857h-8.377s-4.644-12.373-2.579-15.907c0,0-22.18,4.038-20.631-5.05,0,0-9.8,36.868,0,40.4s12.379,5.05,12.379,5.05l.513,3.973h26.821l-1.033-9.528s-3.219,2.777-5.157-8.083" transform="translate(168.95 27.626)"/><path class="n" d="M0,0H14.142V87.881H0Z"/><rect class="o" width="7.884" height="28.266" transform="translate(235.302 39.577)"/><path class="p" d="M96.669,28.187s-7.368,2.528-9.35-4.208" transform="translate(171.777 47.172)"/><path class="q" d="M87.088,37.413s33.645-4.374,31.037,26.687" transform="translate(171.323 73.185)"/><line class="r" x1="396.473" transform="translate(102.527 524.058)"/><path class="s" d="M396.473,0H0" transform="translate(102.527 520.771)"/></g></svg>